G04*
G04 #@! TF.GenerationSoftware,Altium Limited,Altium Designer,21.7.2 (23)*
G04*
G04 Layer_Color=32768*
%FSLAX25Y25*%
%MOIN*%
G70*
G04*
G04 #@! TF.SameCoordinates,5EADC6DB-F1F9-4870-979B-081E39BDB051*
G04*
G04*
G04 #@! TF.FilePolarity,Positive*
G04*
G01*
G75*
%ADD10C,0.00394*%
%ADD77C,0.00197*%
D10*
X311614Y125984D02*
X325787D01*
X311614D02*
Y137795D01*
X325787D01*
Y125984D02*
Y137795D01*
X338976Y131890D02*
X342913D01*
X340945Y129921D02*
Y133858D01*
X294882Y131890D02*
X298819D01*
X296850Y129921D02*
Y133858D01*
X340551Y159449D02*
Y163386D01*
X338583Y161417D02*
X342520D01*
X320866Y159449D02*
Y163386D01*
X318898Y161417D02*
X322835D01*
X301181Y159449D02*
Y163386D01*
X299213Y161417D02*
X303150D01*
X281496Y159449D02*
Y163386D01*
X279527Y161417D02*
X283465D01*
X295275Y31496D02*
Y35433D01*
X293307Y33465D02*
X297244D01*
X365429Y243705D02*
Y275980D01*
X331008Y243705D02*
X365429D01*
X331008D02*
Y275980D01*
X365429D01*
X391732Y214567D02*
Y218504D01*
X389764Y216535D02*
X393701D01*
X365429Y200398D02*
Y232673D01*
X331008Y200398D02*
X365429D01*
X331008D02*
Y232673D01*
X365429D01*
X279528Y31496D02*
Y35433D01*
X277559Y33465D02*
X281496D01*
X322835Y31496D02*
X326772D01*
X324803Y29528D02*
Y33465D01*
X381177Y3547D02*
Y35823D01*
X346756Y3547D02*
X381177D01*
X346756D02*
Y35823D01*
X381177D01*
X322441Y9843D02*
X326378D01*
X324410Y7874D02*
Y11811D01*
X183071Y112205D02*
X187008D01*
X185039Y110236D02*
Y114173D01*
X88583Y118110D02*
X92520D01*
X90551Y116142D02*
Y120079D01*
X125984Y116142D02*
X129921D01*
X127953Y114173D02*
Y118110D01*
X121850Y88583D02*
X125787D01*
X123819Y86614D02*
Y90551D01*
X182874Y86614D02*
X186811D01*
X184843Y84646D02*
Y88583D01*
X147638Y82677D02*
Y86614D01*
X145669Y84646D02*
X149606D01*
X98425Y80315D02*
Y84252D01*
X96457Y82284D02*
X100394D01*
X72835Y82677D02*
Y86614D01*
X70866Y84646D02*
X74803D01*
X246063Y85039D02*
Y88977D01*
X244095Y87008D02*
X248032D01*
X224409Y84646D02*
Y88583D01*
X222441Y86614D02*
X226378D01*
X147638Y53150D02*
Y57087D01*
X145669Y55118D02*
X149606D01*
X112205Y39370D02*
Y43307D01*
X110236Y41339D02*
X114173D01*
X45276Y78740D02*
X49213D01*
X47244Y76772D02*
Y80709D01*
X234252Y57087D02*
X238189D01*
X236220Y55118D02*
Y59055D01*
X147638Y21654D02*
Y25591D01*
X145669Y23622D02*
X149606D01*
X257874Y49213D02*
Y53150D01*
X255906Y51181D02*
X259843D01*
X212598Y29528D02*
Y33465D01*
X210630Y31496D02*
X214567D01*
X517717Y104331D02*
X521654D01*
X519685Y102362D02*
Y106299D01*
X426024Y212598D02*
X488150D01*
X426024D02*
Y275197D01*
X488150D01*
Y212598D02*
Y275197D01*
X487795Y78740D02*
X491732D01*
X489764Y76772D02*
Y80709D01*
X519685Y78740D02*
X523622D01*
X521654Y76772D02*
Y80709D01*
X431102Y78740D02*
X435039D01*
X433071Y76772D02*
Y80709D01*
X458661Y68898D02*
Y72835D01*
X456693Y70866D02*
X460630D01*
X509842Y214173D02*
Y218110D01*
X507874Y216142D02*
X511811D01*
X429134Y41339D02*
Y45276D01*
X427165Y43307D02*
X431102D01*
X409449Y41339D02*
Y45276D01*
X407480Y43307D02*
X411417D01*
X460630Y110236D02*
X464567D01*
X462599Y108268D02*
Y112205D01*
X519685Y150000D02*
Y153937D01*
X517717Y151969D02*
X521654D01*
X407480Y135827D02*
Y139764D01*
X405512Y137795D02*
X409449D01*
X427165Y135827D02*
Y139764D01*
X425197Y137795D02*
X429134D01*
X444882Y136220D02*
Y140157D01*
X442913Y138189D02*
X446850D01*
D77*
X27362Y82874D02*
X27323Y83878D01*
X27205Y84876D01*
X27009Y85861D01*
X26736Y86828D01*
X26388Y87771D01*
X25968Y88683D01*
X25477Y89560D01*
X24918Y90395D01*
X24296Y91184D01*
X23615Y91922D01*
X22877Y92604D01*
X22088Y93226D01*
X21252Y93784D01*
X20376Y94275D01*
X19464Y94695D01*
X18521Y95043D01*
X17554Y95316D01*
X16568Y95512D01*
X15571Y95630D01*
X14567Y95669D01*
X13563Y95630D01*
X12565Y95512D01*
X11580Y95316D01*
X10613Y95043D01*
X9670Y94695D01*
X8758Y94275D01*
X7881Y93784D01*
X7046Y93226D01*
X6257Y92604D01*
X5519Y91922D01*
X4837Y91184D01*
X4215Y90395D01*
X3657Y89560D01*
X3166Y88683D01*
X2746Y87771D01*
X2398Y86828D01*
X2125Y85861D01*
X1929Y84876D01*
X1811Y83878D01*
X1772Y82874D01*
X1811Y81870D01*
X1929Y80872D01*
X2125Y79887D01*
X2398Y78920D01*
X2746Y77978D01*
X3166Y77065D01*
X3657Y76188D01*
X4215Y75353D01*
X4837Y74564D01*
X5519Y73826D01*
X6257Y73144D01*
X7046Y72522D01*
X7881Y71964D01*
X8758Y71473D01*
X9670Y71053D01*
X10613Y70705D01*
X11580Y70432D01*
X12565Y70236D01*
X13563Y70118D01*
X14567Y70079D01*
X15571Y70118D01*
X16568Y70236D01*
X17554Y70432D01*
X18521Y70705D01*
X19464Y71053D01*
X20376Y71473D01*
X21252Y71964D01*
X22088Y72522D01*
X22877Y73144D01*
X23615Y73826D01*
X24296Y74564D01*
X24918Y75353D01*
X25477Y76188D01*
X25968Y77065D01*
X26388Y77978D01*
X26736Y78920D01*
X27009Y79887D01*
X27205Y80872D01*
X27323Y81870D01*
X27362Y82874D01*
X14961Y161811D02*
X231102D01*
Y273622D01*
X14961D02*
X231102D01*
X14961Y161811D02*
Y273622D01*
X497047Y259646D02*
X516732D01*
X497047D02*
Y275394D01*
X516732D01*
Y259646D02*
Y275394D01*
X284744Y3937D02*
Y23622D01*
X274311Y3937D02*
X284744D01*
X274311D02*
Y23622D01*
X284744D01*
X300492Y3937D02*
Y23622D01*
X290059Y3937D02*
X300492D01*
X290059D02*
Y23622D01*
X300492D01*
X260039Y266732D02*
Y286417D01*
X244291Y266732D02*
X260039D01*
X244291D02*
Y286417D01*
X260039D01*
X9646Y125000D02*
Y144685D01*
X25394D01*
Y125000D02*
Y144685D01*
X9646Y125000D02*
X25394D01*
X479134Y123425D02*
Y148228D01*
X493307D01*
Y123425D02*
Y148228D01*
X479134Y123425D02*
X493307D01*
X370669Y267638D02*
Y279606D01*
Y267638D02*
X414606D01*
Y279606D01*
X370669D02*
X414606D01*
X329921Y126181D02*
Y137599D01*
X351969Y126181D02*
Y137599D01*
X329921D02*
X351969D01*
X329921Y126181D02*
X351969D01*
X307874Y126181D02*
Y137598D01*
X285827Y126181D02*
Y137598D01*
Y126181D02*
X307874D01*
X285827Y137598D02*
X307874D01*
X334843Y150394D02*
X346260D01*
X334843Y172441D02*
X346260D01*
X334843Y150394D02*
Y172441D01*
X346260Y150394D02*
Y172441D01*
X315158Y150394D02*
X326575D01*
X315158Y172441D02*
X326575D01*
X315158Y150394D02*
Y172441D01*
X326575Y150394D02*
Y172441D01*
X295473Y150394D02*
X306890D01*
X295473Y172441D02*
X306890D01*
X295473Y150394D02*
Y172441D01*
X306890Y150394D02*
Y172441D01*
X275787Y150394D02*
X287205D01*
X275787Y172441D02*
X287205D01*
X275787Y150394D02*
Y172441D01*
X287205Y150394D02*
Y172441D01*
X302264Y115059D02*
X363091D01*
Y54232D02*
Y115059D01*
X302264Y54232D02*
X363091D01*
X302264D02*
Y115059D01*
X290945Y42323D02*
X299606D01*
X290945Y24606D02*
X299606D01*
Y42323D01*
X290945Y24606D02*
Y42323D01*
X387992Y224016D02*
X395472D01*
X387992Y209055D02*
X395472D01*
Y224016D01*
X387992Y209055D02*
Y224016D01*
X275197Y42323D02*
X283858D01*
X275197Y24606D02*
X283858D01*
Y42323D01*
X275197Y24606D02*
Y42323D01*
X332283Y27756D02*
Y35236D01*
X317323Y27756D02*
Y35236D01*
Y27756D02*
X332283D01*
X317323Y35236D02*
X332283D01*
X335433Y4134D02*
Y15551D01*
X313386Y4134D02*
Y15551D01*
Y4134D02*
X335433D01*
X313386Y15551D02*
X335433D01*
X174016Y106496D02*
Y117913D01*
X196063Y106496D02*
Y117913D01*
X174016D02*
X196063D01*
X174016Y106496D02*
X196063D01*
X79528Y112402D02*
Y123819D01*
X101575Y112402D02*
Y123819D01*
X79528D02*
X101575D01*
X79528Y112402D02*
X101575D01*
X119095Y111811D02*
Y120473D01*
X136811Y111811D02*
Y120473D01*
X119095D02*
X136811D01*
X119095Y111811D02*
X136811D01*
X114961Y84252D02*
Y92914D01*
X132677Y84252D02*
Y92914D01*
X114961D02*
X132677D01*
X114961Y84252D02*
X132677D01*
X175984Y82284D02*
Y90945D01*
X193701Y82284D02*
Y90945D01*
X175984D02*
X193701D01*
X175984Y82284D02*
X193701D01*
X143898Y77165D02*
X151378D01*
X143898Y92126D02*
X151378D01*
X143898Y77165D02*
Y92126D01*
X151378Y77165D02*
Y92126D01*
X92716Y93307D02*
X104134D01*
X92716Y71260D02*
X104134D01*
Y93307D01*
X92716Y71260D02*
Y93307D01*
X3347Y42323D02*
X15157D01*
Y50197D01*
X79134D01*
Y38386D02*
Y50197D01*
Y38386D02*
X84055D01*
Y20669D02*
Y38386D01*
X79134Y20669D02*
X84055D01*
X79134Y8858D02*
Y20669D01*
X78150Y8858D02*
X79134D01*
X78150Y3937D02*
Y8858D01*
X60433Y3937D02*
X78150D01*
X60433D02*
Y8858D01*
X15157D02*
X60433D01*
X15157D02*
Y16732D01*
X3347D02*
X15157D01*
X3347D02*
Y42323D01*
X68504Y75787D02*
X77165D01*
X68504Y93504D02*
X77165D01*
X68504Y75787D02*
Y93504D01*
X77165Y75787D02*
Y93504D01*
X240354Y98032D02*
X251772D01*
X240354Y75984D02*
X251772D01*
Y98032D01*
X240354Y75984D02*
Y98032D01*
X218701Y97638D02*
X230118D01*
X218701Y75591D02*
X230118D01*
Y97638D01*
X218701Y75591D02*
Y97638D01*
X143898Y47638D02*
X151378D01*
X143898Y62598D02*
X151378D01*
X143898Y47638D02*
Y62598D01*
X151378Y47638D02*
Y62598D01*
X106496Y30315D02*
X117913D01*
X106496Y52362D02*
X117913D01*
X106496Y30315D02*
Y52362D01*
X117913Y30315D02*
Y52362D01*
X176772Y60138D02*
X193307D01*
Y46161D02*
Y60138D01*
X176772Y46161D02*
X193307D01*
X176772D02*
Y60138D01*
X56102Y74409D02*
Y83071D01*
X38386Y74409D02*
Y83071D01*
Y74409D02*
X56102D01*
X38386Y83071D02*
X56102D01*
X245079Y52756D02*
Y61417D01*
X227362Y52756D02*
Y61417D01*
Y52756D02*
X245079D01*
X227362Y61417D02*
X245079D01*
X143110Y14567D02*
X152165D01*
X143110Y32677D02*
X152165D01*
X143110Y14567D02*
Y32677D01*
X152165Y14567D02*
Y32677D01*
X252165Y62205D02*
X263583D01*
X252165Y40157D02*
X263583D01*
Y62205D01*
X252165Y40157D02*
Y62205D01*
X206890Y42520D02*
X218307D01*
X206890Y20472D02*
X218307D01*
Y42520D01*
X206890Y20472D02*
Y42520D01*
X508662Y98622D02*
Y110039D01*
X530709Y98622D02*
Y110039D01*
X508662D02*
X530709D01*
X508662Y98622D02*
X530709D01*
X478740Y73031D02*
Y84449D01*
X500787Y73031D02*
Y84449D01*
X478740D02*
X500787D01*
X478740Y73031D02*
X500787D01*
X384646Y83957D02*
X398819D01*
Y73524D02*
Y83957D01*
X384646Y73524D02*
X398819D01*
X384646D02*
Y83957D01*
X512795Y74410D02*
Y83071D01*
X530512Y74410D02*
Y83071D01*
X512795D02*
X530512D01*
X512795Y74410D02*
X530512D01*
X424213Y74410D02*
Y83071D01*
X441929Y74410D02*
Y83071D01*
X424213D02*
X441929D01*
X424213Y74410D02*
X441929D01*
X452953Y81890D02*
X464370D01*
X452953Y59842D02*
X464370D01*
Y81890D01*
X452953Y59842D02*
Y81890D01*
X504134Y205118D02*
X515551D01*
X504134Y227165D02*
X515551D01*
X504134Y205118D02*
Y227165D01*
X515551Y205118D02*
Y227165D01*
X423425Y54331D02*
X434842D01*
X423425Y32283D02*
X434842D01*
Y54331D01*
X423425Y32283D02*
Y54331D01*
X403740D02*
X415157D01*
X403740Y32283D02*
X415157D01*
Y54331D01*
X403740Y32283D02*
Y54331D01*
X453740Y105905D02*
Y114567D01*
X471457Y105905D02*
Y114567D01*
X453740D02*
X471457D01*
X453740Y105905D02*
X471457D01*
X513976Y140945D02*
X525394D01*
X513976Y162992D02*
X525394D01*
X513976Y140945D02*
Y162992D01*
X525394Y140945D02*
Y162992D01*
X401772Y126772D02*
X413189D01*
X401772Y148819D02*
X413189D01*
X401772Y126772D02*
Y148819D01*
X413189Y126772D02*
Y148819D01*
X421457Y126772D02*
X432874D01*
X421457Y148819D02*
X432874D01*
X421457Y126772D02*
Y148819D01*
X432874Y126772D02*
Y148819D01*
X439173Y127165D02*
X450591D01*
X439173Y149213D02*
X450591D01*
X439173Y127165D02*
Y149213D01*
X450591Y127165D02*
Y149213D01*
M02*
