M48
;Layer_Color=9474304
;FILE_FORMAT=2:4
INCH,TZ
;TYPE=PLATED
T1F00S00C0.0118
T2F00S00C0.0236
T3F00S00C0.0276
T5F00S00C0.0409
T6F00S00C0.0421
T7F00S00C0.0430
T8F00S00C0.0472
T9F00S00C0.1307
%
T01
X14764Y1181
X9843Y6693
X7677Y11811
X16535Y8661
X17323Y7874
Y5709
X16535Y5315
X22244Y5709
X23425Y7480
X28937Y7677
X29528Y8071
X29724Y6693
Y5512
X28740Y9252
X28150Y9055
Y13189
X25787Y3937
X28740Y394
X21260Y1772
X34449Y4724
X35630Y4921
X35039Y6299
X36614Y7480
Y8661
X37598Y8465
X38189Y8268
X38386Y6693
X39173Y7087
X40354Y7874
X39764Y9252
X42126Y8661
X41929Y3150
X45866Y5512
X42717Y15354
X37402Y15157
X36614Y15551
X34843Y14173
X33268Y15157
X32874
Y12205
X37008Y10433
X47835Y13976
X49803Y12795
X51968Y11220
Y9252
Y16732
X49803Y21654
X49213Y21063
X40354Y21654
X38189
X36811Y17520
X37795Y15945
X33268Y17126
X32874
X26772Y16929
T02
X1772Y7913
Y8661
T03
X1575Y13189
Y13780
X50394Y26575
X50984
X25394Y27362
Y27953
T05
X16504Y16772
X17504
X18504
X19504
X20504
X21504
X22504
Y26772
X21504
X20504
X19504
X18504
X17504
X16504
X15504
X14504
X13504
X12504
X11504
X10504
X9504
X8504
X7504
X6504
X5504
X4504
Y16772
X5504
X6504
X7504
X8504
X9504
X10504
X11504
X12504
X13504
X14504
X15504
T06
X37764Y27362
X38764
X39764
X40764
T07
X35392Y1969
X37402
X35827Y21654
X33817
Y25984
X35827
T08
X44724Y26772
X45709
X46693
T09
X47441Y24016
X43976
M30
