G04*
G04 #@! TF.GenerationSoftware,Altium Limited,Altium Designer,21.7.2 (23)*
G04*
G04 Layer_Color=16711935*
%FSLAX25Y25*%
%MOIN*%
G70*
G04*
G04 #@! TF.SameCoordinates,5EADC6DB-F1F9-4870-979B-081E39BDB051*
G04*
G04*
G04 #@! TF.FilePolarity,Positive*
G04*
G01*
G75*
%ADD10C,0.00394*%
%ADD11C,0.00500*%
%ADD12C,0.00787*%
%ADD76C,0.01102*%
D10*
X315551Y133858D02*
X321850D01*
X315551Y129921D02*
Y133858D01*
Y129921D02*
X321850D01*
Y133858D01*
X498031Y260630D02*
X515748D01*
X498031D02*
Y274409D01*
X515748D01*
Y260630D02*
Y274409D01*
X282677Y7480D02*
Y20079D01*
X276378Y7480D02*
X282677D01*
X276378D02*
Y20079D01*
X282677D01*
X280579D02*
X282677Y17980D01*
X298425Y7480D02*
Y20079D01*
X292126Y7480D02*
X298425D01*
X292126D02*
Y20079D01*
X298425D01*
X296327D02*
X298425Y17980D01*
X259055Y267716D02*
Y285433D01*
X245276Y267716D02*
X259055D01*
X245276D02*
Y285433D01*
X259055D01*
X10630Y125984D02*
Y143701D01*
X24409D01*
Y125984D02*
Y143701D01*
X10630Y125984D02*
X24409D01*
X480315Y129921D02*
Y141732D01*
X492126D01*
Y129921D02*
Y141732D01*
X480315Y129921D02*
X492126D01*
X480315Y132480D02*
X482874Y129921D01*
X334252Y128347D02*
Y135433D01*
X347638Y128347D02*
Y135433D01*
X334252D02*
X347638D01*
X334252Y128347D02*
X347638D01*
X303543Y128346D02*
Y135433D01*
X290157Y128346D02*
Y135433D01*
Y128346D02*
X303543D01*
X290157Y135433D02*
X303543D01*
X337008Y154725D02*
X344095D01*
X337008Y168110D02*
X344095D01*
X337008Y154725D02*
Y168110D01*
X344095Y154725D02*
Y168110D01*
X317323Y154725D02*
X324410D01*
X317323Y168110D02*
X324410D01*
X317323Y154725D02*
Y168110D01*
X324410Y154725D02*
Y168110D01*
X297638Y154725D02*
X304725D01*
X297638Y168110D02*
X304725D01*
X297638Y154725D02*
Y168110D01*
X304725Y154725D02*
Y168110D01*
X277953Y154725D02*
X285039D01*
X277953Y168110D02*
X285039D01*
X277953Y154725D02*
Y168110D01*
X285039Y154725D02*
Y168110D01*
X309055Y108268D02*
X356299D01*
Y61024D02*
Y108268D01*
X309055Y61024D02*
X356299D01*
X309055D02*
Y108268D01*
Y106299D02*
X311024Y108268D01*
X291929Y39961D02*
X298622D01*
X291929Y26969D02*
X298622D01*
Y39961D01*
X291929Y26969D02*
Y39961D01*
X388386Y223032D02*
X395079D01*
X388386Y210039D02*
X395079D01*
Y223032D01*
X388386Y210039D02*
Y223032D01*
X276181Y39961D02*
X282874D01*
X276181Y26969D02*
X282874D01*
Y39961D01*
X276181Y26969D02*
Y39961D01*
X331299Y28150D02*
Y34843D01*
X318307Y28150D02*
Y34843D01*
Y28150D02*
X331299D01*
X318307Y34843D02*
X331299D01*
X331102Y6299D02*
Y13386D01*
X317717Y6299D02*
Y13386D01*
Y6299D02*
X331102D01*
X317717Y13386D02*
X331102D01*
X178346Y108661D02*
Y115748D01*
X191732Y108661D02*
Y115748D01*
X178346D02*
X191732D01*
X178346Y108661D02*
X191732D01*
X83858Y114567D02*
Y121654D01*
X97244Y114567D02*
Y121654D01*
X83858D02*
X97244D01*
X83858Y114567D02*
X97244D01*
X121457Y112795D02*
Y119488D01*
X134449Y112795D02*
Y119488D01*
X121457D02*
X134449D01*
X121457Y112795D02*
X134449D01*
X117323Y85236D02*
Y91929D01*
X130315Y85236D02*
Y91929D01*
X117323D02*
X130315D01*
X117323Y85236D02*
X130315D01*
X178347Y83268D02*
Y89961D01*
X191339Y83268D02*
Y89961D01*
X178347D02*
X191339D01*
X178347Y83268D02*
X191339D01*
X144390Y78248D02*
X150886D01*
X144390Y91043D02*
X150886D01*
X144390Y78248D02*
Y91043D01*
X150886Y78248D02*
Y91043D01*
X94882Y88976D02*
X101968D01*
X94882Y75590D02*
X101968D01*
Y88976D01*
X94882Y75590D02*
Y88976D01*
X69488Y78149D02*
X76181D01*
X69488Y91142D02*
X76181D01*
X69488Y78149D02*
Y91142D01*
X76181Y78149D02*
Y91142D01*
X242520Y93701D02*
X249606D01*
X242520Y80315D02*
X249606D01*
Y93701D01*
X242520Y80315D02*
Y93701D01*
X220866Y93307D02*
X227953D01*
X220866Y79921D02*
X227953D01*
Y93307D01*
X220866Y79921D02*
Y93307D01*
X144291Y48622D02*
X150984D01*
X144291Y61614D02*
X150984D01*
X144291Y48622D02*
Y61614D01*
X150984Y48622D02*
Y61614D01*
X108661Y34646D02*
X115748D01*
X108661Y48031D02*
X115748D01*
X108661Y34646D02*
Y48031D01*
X115748Y34646D02*
Y48031D01*
X181890Y58858D02*
X188189D01*
Y47441D02*
Y58858D01*
X181890Y47441D02*
X188189D01*
X181890D02*
Y58858D01*
Y55118D02*
X185630Y58858D01*
X53740Y75394D02*
Y82087D01*
X40748Y75394D02*
Y82087D01*
Y75394D02*
X53740D01*
X40748Y82087D02*
X53740D01*
X242717Y53740D02*
Y60433D01*
X229724Y53740D02*
Y60433D01*
Y53740D02*
X242717D01*
X229724Y60433D02*
X242717D01*
X144095Y16929D02*
X151181D01*
X144095Y30315D02*
X151181D01*
X144095Y16929D02*
Y30315D01*
X151181Y16929D02*
Y30315D01*
X254331Y57874D02*
X261417D01*
X254331Y44488D02*
X261417D01*
Y57874D01*
X254331Y44488D02*
Y57874D01*
X209055Y38189D02*
X216142D01*
X209055Y24803D02*
X216142D01*
Y38189D01*
X209055Y24803D02*
Y38189D01*
X512992Y100787D02*
Y107874D01*
X526378Y100787D02*
Y107874D01*
X512992D02*
X526378D01*
X512992Y100787D02*
X526378D01*
X483071Y75197D02*
Y82283D01*
X496457Y75197D02*
Y82283D01*
X483071D02*
X496457D01*
X483071Y75197D02*
X496457D01*
X389272Y82677D02*
X394193D01*
Y74803D02*
Y82677D01*
X389272Y74803D02*
X394193D01*
X389272D02*
Y82677D01*
Y80118D02*
X391831Y82677D01*
X515157Y75394D02*
Y82087D01*
X528150Y75394D02*
Y82087D01*
X515157D02*
X528150D01*
X515157Y75394D02*
X528150D01*
X426575Y75394D02*
Y82087D01*
X439567Y75394D02*
Y82087D01*
X426575D02*
X439567D01*
X426575Y75394D02*
X439567D01*
X455118Y77559D02*
X462205D01*
X455118Y64173D02*
X462205D01*
Y77559D01*
X455118Y64173D02*
Y77559D01*
X506299Y209449D02*
X513386D01*
X506299Y222834D02*
X513386D01*
X506299Y209449D02*
Y222834D01*
X513386Y209449D02*
Y222834D01*
X425591Y50000D02*
X432677D01*
X425591Y36614D02*
X432677D01*
Y50000D01*
X425591Y36614D02*
Y50000D01*
X405906D02*
X412992D01*
X405906Y36614D02*
X412992D01*
Y50000D01*
X405906Y36614D02*
Y50000D01*
X456102Y106890D02*
Y113583D01*
X469095Y106890D02*
Y113583D01*
X456102D02*
X469095D01*
X456102Y106890D02*
X469095D01*
X516142Y145276D02*
X523228D01*
X516142Y158661D02*
X523228D01*
X516142Y145276D02*
Y158661D01*
X523228Y145276D02*
Y158661D01*
X403937Y131102D02*
X411024D01*
X403937Y144488D02*
X411024D01*
X403937Y131102D02*
Y144488D01*
X411024Y131102D02*
Y144488D01*
X423622Y131102D02*
X430709D01*
X423622Y144488D02*
X430709D01*
X423622Y131102D02*
Y144488D01*
X430709Y131102D02*
Y144488D01*
X441339Y131496D02*
X448425D01*
X441339Y144882D02*
X448425D01*
X441339Y131496D02*
Y144882D01*
X448425Y131496D02*
Y144882D01*
D11*
X26378Y82874D02*
X26335Y83876D01*
X26208Y84870D01*
X25997Y85850D01*
X25703Y86809D01*
X25330Y87739D01*
X24878Y88634D01*
X24352Y89488D01*
X23756Y90294D01*
X23094Y91047D01*
X22370Y91740D01*
X21590Y92370D01*
X20760Y92931D01*
X19884Y93420D01*
X18971Y93833D01*
X18025Y94167D01*
X17055Y94420D01*
X16067Y94589D01*
X15068Y94674D01*
X14066D01*
X13067Y94589D01*
X12079Y94420D01*
X11108Y94167D01*
X10163Y93833D01*
X9250Y93420D01*
X8374Y92931D01*
X7544Y92370D01*
X6764Y91740D01*
X6040Y91047D01*
X5378Y90294D01*
X4781Y89488D01*
X4256Y88634D01*
X3804Y87739D01*
X3431Y86809D01*
X3137Y85850D01*
X2926Y84870D01*
X2798Y83876D01*
X2756Y82874D01*
X2798Y81872D01*
X2926Y80878D01*
X3137Y79898D01*
X3431Y78939D01*
X3804Y78009D01*
X4256Y77114D01*
X4781Y76260D01*
X5378Y75454D01*
X6040Y74701D01*
X6764Y74008D01*
X7544Y73378D01*
X8374Y72817D01*
X9250Y72328D01*
X10163Y71915D01*
X11108Y71581D01*
X12079Y71328D01*
X13067Y71159D01*
X14066Y71074D01*
X15068D01*
X16067Y71159D01*
X17055Y71328D01*
X18025Y71581D01*
X18971Y71915D01*
X19884Y72328D01*
X20760Y72817D01*
X21590Y73378D01*
X22370Y74008D01*
X23094Y74701D01*
X23756Y75454D01*
X24352Y76260D01*
X24878Y77114D01*
X25330Y78009D01*
X25703Y78939D01*
X25997Y79898D01*
X26208Y80878D01*
X26335Y81872D01*
X26378Y82874D01*
X15945Y162795D02*
X230118D01*
Y272638D01*
X15945D02*
X230118D01*
X15945Y162795D02*
Y272638D01*
X17067Y62874D02*
Y67874D01*
X14567Y65374D02*
X19567D01*
X17067Y97874D02*
Y102874D01*
X371654Y268622D02*
Y278622D01*
Y268622D02*
X413622D01*
Y278622D01*
X371654D02*
X413622D01*
X16142Y49213D02*
X78347D01*
Y9843D02*
Y49213D01*
X16142Y9843D02*
X78347D01*
X16142D02*
Y17717D01*
Y41339D01*
Y49213D01*
X4331Y41339D02*
X16142D01*
X4331Y17717D02*
Y41339D01*
Y17717D02*
X16142D01*
D12*
X369567Y273425D02*
X368780D01*
X369567D01*
X360421Y247642D02*
Y272043D01*
X336020Y247642D02*
X360421D01*
X336020D02*
Y272043D01*
X360421D01*
Y204335D02*
Y228736D01*
X336020Y204335D02*
X360421D01*
X336020D02*
Y228736D01*
X360421D01*
X376169Y7484D02*
Y31886D01*
X351768Y7484D02*
X376169D01*
X351768D02*
Y31886D01*
X376169D01*
X437402Y263779D02*
X476772D01*
X437402Y216535D02*
Y263779D01*
Y216535D02*
X476772D01*
Y263779D01*
D76*
X45039Y160236D02*
X44213Y160714D01*
Y159759D01*
X45039Y160236D01*
M02*
